<?xml version="1.0" encoding="UTF-8"?>
<svg id="_圖層_1" data-name="圖層 1" xmlns="http://www.w3.org/2000/svg" viewBox="0 0 100 50.38">
  <defs>
    <style>
      .cls-1 {
        fill: #7a6a56;
      }
    </style>
  </defs>
  <path class="cls-1" d="m62.53,34.82l9.74,7.25,27.73-11.83-5.64.92v-2.26l-5.26.53-.38-2.81-1.89,1.39-.43.12-.87.24-2.23.62-.17-1.12-3.42.79-.46-1.36-10.16,7.85-4.44-1.1-.7-.17-1.42-.35-2.9,1.25-1.44.6c-.19-.47-.15-.88.85-1.04.12-.02.26-.2.32-.33.59-1.39,1.14-2.79,1.76-4.17.24-.53.5-1.14.94-1.46,3.54-2.63,7.24-5.07,10.67-7.83,3.62-2.91,7.22-5.9,9.96-9.73.91-1.28.65-2.03-.87-2.31-4.15-.78-8.3-1.53-12.45-2.3C58.43,4.19,47.49,2.21,36.56.13c-1.66-.32-2.73-.11-3.98,1.25C22.11,12.86,11.52,24.23.96,35.63c-1.5,1.62-1.27,2.67.89,3.11,4.02.81,8.04,1.64,12.11,2.12,6.82.8,13.63.39,20.34-1.15.36-.08,1.02-.04,1.13.16.14.27.32.5.49.74l-.58.28-1.65.64.34,2.36-1.12,4.19,10.87,2.29,12.46-1.86,8.59-5.51-1.71-2.69v-1.32l-.79-.32-.5-3.08-3.27.52c-.11-.21-.24-.43-.33-.63l3.08-.47,1.22-.19Zm5.06,1.06l1.97.75,16.34-8.13.83-.41-14.84,10.94-8.95-4.91,4.65,1.76Zm-8.07-8.8L36.84,4.15l25.29,15.21,4.92,2.79s-6.27,4.93-7.52,4.93Zm-15.54-2.01c.51-.25,1.02-.51,1.53-.76.06-.03.12-.07.19-.1.03.04.05.06.06.09.4.66.8,1.32,1.2,1.99.09.15.09.18-.07.26-.63.32-1.27.64-1.91.95-.45.22-.91.42-1.36.63-.1.05-.15.02-.2-.07-.36-.7-.73-1.4-1.1-2.1-.03-.06-.05-.1.03-.13.54-.25,1.08-.49,1.61-.75Zm-1.03-3.48c.22-.11.44-.21.65-.33.74-.4,1.49-.81,2.23-1.22.05-.02.09-.05.15-.08.15.25.28.48.43.71.26.41.52.83.78,1.24.1.17.1.21-.08.3-.81.44-1.63.89-2.45,1.33-.19.1-.38.2-.57.29-.14.07-.16.07-.24-.07-.3-.56-.6-1.13-.9-1.7-.03-.06-.06-.12-.1-.18-.09-.18-.09-.2.09-.29Zm3.45,6.37c1.13-.57,2.27-1.13,3.4-1.7.08-.04.12-.03.17.04.46.59.92,1.17,1.38,1.76q.1.13-.05.21c-.85.48-1.7.96-2.56,1.43-.33.18-.67.35-1.03.54-.47-.75-.92-1.48-1.39-2.22.03-.02.05-.04.07-.05Zm6.53,4.49s.52,1.75-.13,2.49c-.64.74-5.81.64-5.81.64,2.52-.97,5.94-3.13,5.94-3.13Zm-13.71-6.48c-.15.06-.3.11-.45.17-.09.03-.15,0-.19-.09-.28-.68-.56-1.35-.85-2.03-.05-.11-.01-.17.1-.21.4-.15.79-.3,1.19-.46.62-.25,1.23-.52,1.84-.78.08-.03.16-.06.26-.1.03.03.07.06.09.1.33.67.67,1.34,1,2.01.05.11,0,.14-.09.18-.97.4-1.93.8-2.9,1.21Zm2.4,3c-1.01.38-2.03.76-3.05,1.14-.15.06-.31.11-.47.16-.12,0-.15-.09-.18-.17-.11-.27-.22-.54-.33-.8-.17-.42-.34-.84-.51-1.27-.06-.16-.06-.16.11-.22,1.09-.4,2.19-.8,3.28-1.21.1-.04.14-.03.19.07.34.68.69,1.36,1.04,2.03.09.17.09.19-.09.25Zm30.72-19.14l6.73,1.36s-3.78,5.43-7.45,7.86l-2.01-1L36.08,2.65l36.27,7.2Zm-39.71,15.62c.49-.14.98-.27,1.47-.41.59-.18,1.17-.37,1.76-.55.22-.07.22-.06.3.15.26.68.52,1.36.78,2.04.03.07.03.11-.05.14-1.16.34-2.31.69-3.47,1.03-.05.01-.09.02-.14.03-.1,0-.15-.07-.17-.15-.1-.34-.21-.68-.31-1.02-.1-.33-.21-.67-.31-1-.05-.17-.04-.2.15-.25Zm-.84,3.89c1.11-.29,2.22-.58,3.33-.87.17-.04.17-.04.23.11.29.76.57,1.51.86,2.29-.15.04-.29.08-.43.12-1.11.29-2.22.58-3.33.87-.17.04-.18.04-.23-.12-.21-.66-.42-1.33-.63-1.99,0-.02,0-.03-.01-.05-.06-.24-.02-.3.21-.36Zm-4.66-2.74c1.08-.2,2.17-.4,3.25-.61.33-.06.35-.06.44.26.18.65.36,1.3.54,1.94.03.11.02.16-.11.18-.9.17-1.79.36-2.68.54-.32.06-.64.1-.99.16-.02-.02-.05-.05-.06-.09-.16-.75-.32-1.5-.48-2.26-.02-.09,0-.12.09-.13Zm-1.14,3.78c.26-.04.51-.06.77-.1.91-.15,1.82-.3,2.72-.46.13-.02.16.02.2.13.21.74.42,1.48.63,2.22.04.13.03.16-.11.19-.26.05-.51.1-.77.15-.9.15-1.79.29-2.69.43-.08.01-.16.02-.22.02-.17,0-.21-.04-.25-.22-.12-.57-.25-1.13-.37-1.7-.03-.13-.06-.26-.08-.39-.04-.18,0-.25.19-.27Zm-4.59-3.18c.57-.04,1.14-.07,1.71-.12.56-.05,1.11-.11,1.67-.16.08,0,.16-.01.24-.01.18,0,.23.05.27.23.05.3.1.6.16.9.07.36.15.73.23,1.09.04.18,0,.23-.18.25-.22.03-.45.05-.67.07-.67.06-1.34.13-2.02.19-.31.03-.62.04-.93.07-.38.03-.39.03-.43-.34-.08-.64-.16-1.28-.23-1.92-.02-.2,0-.23.2-.24Zm-1.47,3.66c.12-.02.25-.02.37-.03.84-.05,1.69-.09,2.53-.14.31-.02.62-.05.93-.07.05,0,.09,0,.14,0,.14.74.28,1.47.43,2.2.01.07.02.14.05.21.04.11-.01.15-.11.15-.61.05-1.22.1-1.84.15-.49.03-.98.06-1.48.08-.25.01-.49.03-.74.03-.2,0-.24-.03-.27-.23-.06-.46-.12-.93-.18-1.39-.03-.23-.06-.46-.08-.68-.02-.19.05-.28.24-.3Zm-4.49-3.65c1.24.08,2.49.07,3.74.07.3,0,.3,0,.33.3.07.68.14,1.36.21,2.04.01.1-.01.16-.12.17-.06,0-.13.02-.19.02-.44,0-.87,0-1.48,0-.65-.01-1.48-.03-2.31-.05-.06,0-.11-.01-.17-.02-.08-.01-.11-.06-.11-.14-.02-.74-.05-1.48-.07-2.22,0-.14.03-.18.18-.17Zm-2.19,9.8c-.91-.08-1.81-.17-2.72-.26-.43-.04-.86-.1-1.29-.15-.19-.02-.19-.02-.19-.21,0-.76,0-1.52,0-2.27,0-.02,0-.05,0-.09.23.03.45.06.67.09.76.09,1.52.18,2.28.26.47.05.93.08,1.4.12.1,0,.14.05.15.15.02.33.04.66.06.99.03.42.06.84.1,1.27,0,.04,0,.09,0,.14-.16,0-.31-.01-.46-.03Zm.62-3.66c-.24-.01-.27-.04-.28-.28-.03-.68-.05-1.37-.08-2.05,0-.18,0-.2.19-.19.42.02.84.05,1.26.07.82.03,1.64.05,2.46.07.09,0,.18,0,.27.02.19.02.21.05.23.24.02.25.04.51.07.76.05.44.1.88.14,1.32,0,.06,0,.12.01.19-.32,0-.63,0-.93,0-.63-.02-1.27-.04-1.9-.07-.48-.02-.96-.05-1.44-.07Zm20.87,1.76c-1.57.4-3.15.76-4.75,1.03-1.27.21-2.54.41-3.81.57-1.17.14-2.34.23-3.52.33-.66.05-1.32.08-1.99.11-.51.02-1.03.03-1.54.04-.79,0-1.59,0-2.38,0-.22,0-.44,0-.65-.02-.16-.01-.21-.06-.19-.19.06-.78-.07-1.55-.14-2.32.27,0,.53,0,.79,0,.4,0,.8.02,1.2.02.88,0,1.77,0,2.65-.03,1.05-.04,2.1-.1,3.15-.19.95-.08,1.9-.17,2.85-.3,1.33-.19,2.66-.4,3.98-.64,1.6-.29,3.18-.67,4.74-1.1,1.69-.47,3.37-1,5.01-1.61,1.46-.54,2.9-1.13,4.31-1.78.07-.03.09-.01.13.05.37.65.75,1.3,1.13,1.95.09.15.09.15-.06.22-1.68.78-3.4,1.48-5.14,2.11-1.9.68-3.82,1.27-5.77,1.78Zm-.72,6.64l1.41-.63.53-.25.59,1.27-2.52-.39Zm4.64,2.34l-3.47-1.14,3.15.24,6.05,1.24-5.73-.35Zm22.61-8.08l-1,1.79-1-1.44,2-.35Zm.29,1.46l.15,1.54-4.07,3.67,4.41-3.15.67.12-7.17,6.03-11.36,1.63,11.27-3.18,6.11-6.65Z"/>
</svg>